<svg width="20" height="20" viewBox="0 0 20 20" fill="none" xmlns="http://www.w3.org/2000/svg">
  <path
    d="M8.74167 1.85836L4.58334 3.42503C3.62501 3.78336 2.84167 4.9167 2.84167 5.93336V12.125C2.84167 13.1084 3.49167 14.4 4.28334 14.9917L7.86667 17.6667C9.04167 18.55 10.975 18.55 12.15 17.6667L15.7333 14.9917C16.525 14.4 17.175 13.1084 17.175 12.125V5.93336C17.175 4.90836 16.3917 3.77503 15.4333 3.4167L11.275 1.85836C10.5667 1.60003 9.43334 1.60003 8.74167 1.85836Z"
    stroke="#0A0723" stroke-width="1.5" stroke-linecap="round" stroke-linejoin="round" />
  <path
    d="M10 10.4166C10.9205 10.4166 11.6667 9.67045 11.6667 8.74998C11.6667 7.82951 10.9205 7.08331 10 7.08331C9.07954 7.08331 8.33334 7.82951 8.33334 8.74998C8.33334 9.67045 9.07954 10.4166 10 10.4166Z"
    stroke="#0A0723" stroke-width="1.5" stroke-miterlimit="10" stroke-linecap="round" stroke-linejoin="round" />
  <path d="M10 10.4167V12.9167" stroke="#0A0723" stroke-width="1.5" stroke-miterlimit="10" stroke-linecap="round"
    stroke-linejoin="round" />
</svg>